<svg viewBox="0 0 14.31 28.26" xmlns="http://www.w3.org/2000/svg"><path d="m13 20.94-2-3.45a15.82 15.82 0 0 0 .68-4.27 5.43 5.43 0 0 0 0-.57 8.24 8.24 0 0 0 -2.8-6.33 5.17 5.17 0 0 1 -1.27-1.62 1.19 1.19 0 0 0 .48-.16.67.67 0 0 0 .31-.58l-.06-.14a1.48 1.48 0 0 0 -.79-.16 2.62 2.62 0 0 1 0-.74c0-.14 0-.14.2-.16a.26.26 0 0 0 .25-.17.5.5 0 0 0 -.08-.43v-.06a5.11 5.11 0 0 1 -.49-1.57c0-.37-.09-.47-.15-.5a.17.17 0 0 0 -.19 0s-.16.09-.16.5a5 5 0 0 1 -.46 1.55.59.59 0 0 0 -.12.31.2.2 0 0 0 0 .11.27.27 0 0 0 .23.15c.19 0 .19 0 .21.15a3.55 3.55 0 0 1 0 .46 1.42 1.42 0 0 1 0 .29 1.48 1.48 0 0 0 -.79.24v.14a.64.64 0 0 0 .31.58 1.14 1.14 0 0 0 .47.16 5.15 5.15 0 0 1 -1.3 1.67 8.18 8.18 0 0 0 -2.8 6.3v.58a15.88 15.88 0 0 0 .68 4.27l-2.1 3.45-1.26 7.32h1.43l1.33-4.65 2.24-1.88h.08l.25.08c0 .22.08.47.11.62s.08.4 1.13.47v5.32h1.17v-5.22c1.1-.07 1.16-.36 1.18-.47s.07-.4.11-.63l.25-.08h.05l2.22 1.86 1.33 4.65h1.43z" fill="#b4fff4"/></svg>